{"title":"Dear.Mr.Watterson.2013.720p.WEBRip.x264-Fastbet99","uid":9326178,"size":1122992424,"categoryP":"video","categoryS":"hd___movies","magnet":"?xt=urn:btih:b192436162a48f3e32efd44b05ecebd308ea21ef&amp;dn=Dear.Mr.Watterson.2013.720p.WEBRip.x264-Fastbet99&amp;tr=udp%3A%2F%2Ftracker.openbittorrent.com%3A80&amp;tr=udp%3A%2F%2Fopen.demonii.com%3A1337&amp;tr=udp%3A%2F%2Ftracker.coppersurfer.tk%3A6969&amp;tr=udp%3A%2F%2Fexodus.desync.com%3A6969","seeders":0,"leechers":1,"uploader":"Fastbet99","files":-1,"time":1386640223,"description":"Dear Mr.Watterson (2013)\n\nIMDB Info\t\t\t\t : http://www.imdb.com/title/tt2222206\n\nSource\t\t\t\t\t : WNDK (Thanks)\nComplete name                            : Dear.Mr.Watterson.2013.720p.WEBRip.x264-Fastbet99.mp4\nFormat                                   : MPEG-4\nFormat profile                           : Base Media\nCodec ID                                 : isom\nFile size                                : 1.05 GiB\nDuration                                 : 1h 30mn\nOverall bit rate mode                    : Variable\nOverall bit rate                         : 1 663 Kbps\n\nVideo\nID                                       : 1\nFormat                                   : AVC\nFormat/Info                              : Advanced Video Codec\nFormat profile                           : &lt;a class=&quot;__cf_email__&quot; href=&quot;/cdn-cgi/l/email-protection&quot; data-cfemail=&quot;95ddfcf2fdd5d9a1bba4&quot;&gt;[email&amp;#160;protected]&lt;/a&gt;&lt;script data-cfhash='f9e31' type=&quot;text/javascript&quot;&gt;\n/* &lt;![CDATA[ */!function(){try{var t=&quot;currentScript&quot;in document?document.currentScript:function(){for(var t=document.getElementsByTagName(&quot;script&quot;),e=t.length;e--;)if(t[e].getAttribute(&quot;data-cfhash&quot;))return t[e]}();if(t&amp;&amp;t.previousSibling){var e,r,n,i,c=t.previousSibling,a=c.getAttribute(&quot;data-cfemail&quot;);if(a){for(e=&quot;&quot;,r=parseInt(a.substr(0,2),16),n=2;a.length-n;n+=2)i=parseInt(a.substr(n,2),16)^r,e+=String.fromCharCode(i);e=document.createTextNode(e),c.parentNode.replaceChild(e,c)}t.parentNode.removeChild(t);}}catch(u){}}()/* ]]&gt; */&lt;/script&gt;\nFormat settings, CABAC                   : Yes\nFormat settings, ReFrames                : 4 frames\nCodec ID                                 : avc1\nCodec ID/Info                            : Advanced Video Coding\nDuration                                 : 1h 30mn\nBit rate                                 : 1 562 Kbps\nMaximum bit rate                         : 9 867 Kbps\nWidth                                    : 1 280 pixels\nHeight                                   : 718 pixels\nDisplay aspect ratio                     : 16:9\nFrame rate mode                          : Constant\nFrame rate                               : 23.976 fps\nColor space                              : YUV\nChroma subsampling                       : 4:2:0\nBit depth                                : 8 bits\nScan type                                : Progressive\nBits/(Pixel*Frame)                       : 0.071\nStream size                              : 1 006 MiB (94%)\nWriting library                          : x264 core 133 r2334 a3ac64b\n\nAudio\nID                                       : 2\nFormat                                   : AAC\nFormat/Info                              : Advanced Audio Codec\nFormat profile                           : LC\nCodec ID                                 : 40\nDuration                                 : 1h 30mn\nBit rate mode                            : Variable\nBit rate                                 : 96.0 Kbps\nMaximum bit rate                         : 136 Kbps\nChannel count                            : 2 channels\nChannel positions                        : Front: L R\nSampling rate                            : 48.0 KHz\nCompression mode                         : Lossy\nStream size                              : 61.6 MiB (6%)\nLanguage                                 : English\n\nText #1\nID                                       : 3\nFormat                                   : Timed Text\nCodec ID                                 : tx3g\nDuration                                 : 1h 29mn\nBit rate mode                            : Variable\nBit rate                                 : 139 bps\nStream size                              : 91.3 KiB (0%)\nLanguage                                 : English\n\nText #2\nID                                       : 4\nFormat                                   : Timed Text\nCodec ID                                 : tx3g\nDuration                                 : 1h 29mn\nBit rate mode                            : Variable\nBit rate                                 : 123 bps\nStream size                              : 81.0 KiB (0%)\nLanguage                                 : French\n\nText #3\nID                                       : 5\nFormat                                   : Timed Text\nCodec ID                                 : tx3g\nDuration                                 : 1h 29mn\nBit rate mode                            : Variable\nBit rate                                 : 128 bps\nStream size                              : 84.2 KiB (0%)\nLanguage                                 : German\n\nText #4\nID                                       : 6\nFormat                                   : Timed Text\nCodec ID                                 : tx3g\nDuration                                 : 1h 29mn\nBit rate mode                            : Variable\nBit rate                                 : 129 bps\nStream size                              : 84.9 KiB (0%)\nLanguage                                 : Portuguese\n\nText #5\nID                                       : 7\nFormat                                   : Timed Text\nCodec ID                                 : tx3g\nDuration                                 : 1h 29mn\nBit rate mode                            : Variable\nBit rate                                 : 140 bps\nStream size                              : 92.0 KiB (0%)\nLanguage                                 : Spanish\n\nText #6\nID                                       : 8\nFormat                                   : Timed Text\nCodec ID                                 : tx3g\nDuration                                 : 1h 29mn\nBit rate mode                            : Variable\nBit rate                                 : 110 bps\nStream size                              : 72.2 KiB (0%)\nLanguage                                 : Swedish\nEncoder\t\t\t\t\t : Fastbet99","torrent":{"xt":"urn:btih:b192436162a48f3e32efd44b05ecebd308ea21ef","amp;dn":"Dear.Mr.Watterson.2013.720p.WEBRip.x264-Fastbet99","amp;tr":["udp%3A%2F%2Ftracker.openbittorrent.com%3A80","udp%3A%2F%2Fopen.demonii.com%3A1337","udp%3A%2F%2Ftracker.coppersurfer.tk%3A6969","udp%3A%2F%2Fexodus.desync.com%3A6969"],"infoHash":"b192436162a48f3e32efd44b05ecebd308ea21ef","infoHashBuffer":{"type":"Buffer","data":[177,146,67,97,98,164,143,62,50,239,212,75,5,236,235,211,8,234,33,239]},"announce":[],"urlList":[]}}